<?xml version="1.0" encoding="utf-8"?>
<!-- Generator: Adobe Illustrator 25.4.1, SVG Export Plug-In . SVG Version: 6.00 Build 0)  -->
<svg version="1.1" id="Layer_1" xmlns="http://www.w3.org/2000/svg" xmlns:xlink="http://www.w3.org/1999/xlink" x="0px" y="0px"
	 viewBox="0 0 1366 768" style="enable-background:new 0 0 1366 768;" xml:space="preserve">
<style type="text/css">
	.st0{fill:none;stroke:#FF00FF;stroke-width:2;stroke-miterlimit:10;}
	.st1{fill:none;stroke:#FF00FF;stroke-width:4;stroke-miterlimit:10;}
	.st2{fill:none;stroke:#FF00FF;stroke-width:4;stroke-miterlimit:10;stroke-dasharray:5.0012,5.0012;}
	.st3{fill:none;stroke:#FF00FF;stroke-width:2;stroke-miterlimit:10;stroke-dasharray:5;}
	.st4{fill:#FF00FF;}
	.st5{font-family:'Rubik-SemiBold';}
	.st6{font-size:24px;}
	.st7{font-family:'Rubik-Regular';}
</style>
<g>
	<path class="st0" d="M705.61,696.53H204.08c-4.68,0-8.48-3.8-8.48-8.48V229.49c0-4.68,3.8-8.48,8.48-8.48h501.53
		c4.68,0,8.48,3.8,8.48,8.48v458.56C714.09,692.73,710.3,696.53,705.61,696.53z"/>
	<rect x="312.34" y="296.2" class="st0" width="276.43" height="320.83"/>
	<rect x="194.89" y="478.1" class="st0" width="519.92" height="65.89"/>
	<line class="st0" x1="195.6" y1="622.05" x2="714.09" y2="622.05"/>
	<line class="st0" x1="449.84" y1="296.2" x2="449.84" y2="617.04"/>
	<line class="st0" x1="217.8" y1="234.61" x2="691.89" y2="234.61"/>
	<path class="st0" d="M378.22,458.05h-38.56c-3.23,0-5.84-2.62-5.84-5.84v-81.41c0-3.23,2.62-5.84,5.84-5.84h38.56V458.05z"/>
	<path class="st0" d="M385.38,458.05h38.56c3.23,0,5.84-2.62,5.84-5.84v-81.41c0-3.23-2.62-5.84-5.84-5.84h-38.56V458.05z"/>
	<path class="st0" d="M427.7,467.36h-93.24c-5.5,0-9.96-4.46-9.96-9.96v-93.24c0-5.5,4.46-9.96,9.96-9.96h93.24
		c5.5,0,9.96,4.46,9.96,9.96v93.24C437.66,462.9,433.2,467.36,427.7,467.36z"/>
	<path class="st0" d="M520.02,458.05h-38.56c-3.23,0-5.84-2.62-5.84-5.84v-81.41c0-3.23,2.62-5.84,5.84-5.84h38.56V458.05z"/>
	<path class="st0" d="M527.18,458.05h38.56c3.23,0,5.84-2.62,5.84-5.84v-81.41c0-3.23-2.62-5.84-5.84-5.84h-38.56V458.05z"/>
	<path class="st0" d="M569.5,467.36h-93.24c-5.5,0-9.96-4.46-9.96-9.96v-93.24c0-5.5,4.46-9.96,9.96-9.96h93.24
		c5.5,0,9.96,4.46,9.96,9.96v93.24C579.46,462.9,575,467.36,569.5,467.36z"/>
	<rect x="213.51" y="609.87" class="st0" width="18.62" height="12.89"/>
	<rect x="673.27" y="609.87" class="st0" width="18.62" height="12.89"/>
	<path class="st0" d="M234.79,253.23h-15.35c-2.49,0-4.5-2.01-4.5-4.5v-3.89c0-2.49,2.01-4.5,4.5-4.5h15.35c2.49,0,4.5,2.01,4.5,4.5
		v3.89C239.29,251.22,237.27,253.23,234.79,253.23z"/>
	<path class="st0" d="M685.96,253.23h-15.35c-2.49,0-4.5-2.01-4.5-4.5v-3.89c0-2.49,2.01-4.5,4.5-4.5h15.35c2.49,0,4.5,2.01,4.5,4.5
		v3.89C690.46,251.22,688.44,253.23,685.96,253.23z"/>
	<path class="st0" d="M364.24,283.31h-32.19c-2.98,0-5.39-2.41-5.39-5.39v-27.89c0-2.98,2.41-5.39,5.39-5.39h32.19
		c2.98,0,5.39,2.41,5.39,5.39v27.89C369.63,280.9,367.21,283.31,364.24,283.31z"/>
	<path class="st0" d="M368.01,289.76h-39.73c-4.45,0-8.07-3.61-8.07-8.07v-35.43c0-4.45,3.61-8.07,8.07-8.07h39.73
		c4.45,0,8.07,3.61,8.07,8.07v35.43C376.07,286.15,372.46,289.76,368.01,289.76z"/>
	<path class="st0" d="M573.35,283.31h-32.19c-2.98,0-5.39-2.41-5.39-5.39v-27.89c0-2.98,2.41-5.39,5.39-5.39h32.19
		c2.98,0,5.39,2.41,5.39,5.39v27.89C578.74,280.9,576.33,283.31,573.35,283.31z"/>
	<path class="st0" d="M577.12,289.76h-39.73c-4.45,0-8.07-3.61-8.07-8.07v-35.43c0-4.45,3.61-8.07,8.07-8.07h39.73
		c4.45,0,8.07,3.61,8.07,8.07v35.43C585.19,286.15,581.58,289.76,577.12,289.76z"/>
	<path class="st0" d="M272.54,427.26h-30.7c-4.18,0-7.57-3.39-7.57-7.57v-26.41c0-4.18,3.39-7.57,7.57-7.57h30.7
		c4.18,0,7.57,3.39,7.57,7.57v26.41C280.11,423.87,276.72,427.26,272.54,427.26z"/>
	<path class="st0" d="M662.84,427.97h-30.7c-4.18,0-7.57-3.39-7.57-7.57V394c0-4.18,3.39-7.57,7.57-7.57h30.7
		c4.18,0,7.57,3.39,7.57,7.57v26.41C670.41,424.59,667.02,427.97,662.84,427.97z"/>
	<circle class="st0" cx="627.44" cy="339.17" r="4.3"/>
	<path class="st0" d="M428.65,253.23h-17.78c-2.21,0-4-1.79-4-4v-3.46c0-2.21,1.79-4,4-4h17.78c2.21,0,4,1.79,4,4v3.46
		C432.65,251.44,430.86,253.23,428.65,253.23z"/>
	<path class="st0" d="M461.59,253.23h-17.78c-2.21,0-4-1.79-4-4v-3.46c0-2.21,1.79-4,4-4h17.78c2.21,0,4,1.79,4,4v3.46
		C465.59,251.44,463.8,253.23,461.59,253.23z"/>
	<path class="st0" d="M495.97,253.23h-17.78c-2.21,0-4-1.79-4-4v-3.46c0-2.21,1.79-4,4-4h17.78c2.21,0,4,1.79,4,4v3.46
		C499.97,251.44,498.17,253.23,495.97,253.23z"/>
	<g>
		<path class="st0" d="M291.04,663.58h-69.13c-2.66,0-4.82-2.16-4.82-4.82v-24.73c0-2.66,2.16-4.82,4.82-4.82h69.13
			c2.66,0,4.82,2.16,4.82,4.82v24.73C295.86,661.43,293.71,663.58,291.04,663.58z"/>
		<path class="st0" d="M239.67,657.14h-15.08c-1.37,0-2.48-1.11-2.48-2.48v-16.52c0-1.37,1.11-2.48,2.48-2.48h15.08
			c1.37,0,2.48,1.11,2.48,2.48v16.52C242.15,656.03,241.04,657.14,239.67,657.14z"/>
		<path class="st0" d="M289.8,657.14h-15.08c-1.37,0-2.48-1.11-2.48-2.48v-16.52c0-1.37,1.11-2.48,2.48-2.48h15.08
			c1.37,0,2.48,1.11,2.48,2.48v16.52C292.28,656.03,291.17,657.14,289.8,657.14z"/>
		<path class="st0" d="M264.02,657.14h-15.08c-1.37,0-2.48-1.11-2.48-2.48v-16.52c0-1.37,1.11-2.48,2.48-2.48h15.08
			c1.37,0,2.48,1.11,2.48,2.48v16.52C266.5,656.03,265.39,657.14,264.02,657.14z"/>
		<path class="st0" d="M261.79,651.41h-10.63c-0.23,0-0.41-0.18-0.41-0.41v-9.2c0-0.23,0.18-0.41,0.41-0.41h10.63
			c0.23,0,0.41,0.18,0.41,0.41v9.2C262.21,651.23,262.02,651.41,261.79,651.41z"/>
	</g>
	<g>
		<path class="st0" d="M686.35,663.58h-69.13c-2.66,0-4.82-2.16-4.82-4.82v-24.73c0-2.66,2.16-4.82,4.82-4.82h69.13
			c2.66,0,4.82,2.16,4.82,4.82v24.73C691.18,661.43,689.02,663.58,686.35,663.58z"/>
		<path class="st0" d="M634.98,657.14H619.9c-1.37,0-2.48-1.11-2.48-2.48v-16.52c0-1.37,1.11-2.48,2.48-2.48h15.08
			c1.37,0,2.48,1.11,2.48,2.48v16.52C637.46,656.03,636.35,657.14,634.98,657.14z"/>
		<path class="st0" d="M685.11,657.14h-15.08c-1.37,0-2.48-1.11-2.48-2.48v-16.52c0-1.37,1.11-2.48,2.48-2.48h15.08
			c1.37,0,2.48,1.11,2.48,2.48v16.52C687.59,656.03,686.48,657.14,685.11,657.14z"/>
		<path class="st0" d="M659.33,657.14h-15.08c-1.37,0-2.48-1.11-2.48-2.48v-16.52c0-1.37,1.11-2.48,2.48-2.48h15.08
			c1.37,0,2.48,1.11,2.48,2.48v16.52C661.81,656.03,660.7,657.14,659.33,657.14z"/>
		<path class="st0" d="M657.1,651.41h-10.63c-0.23,0-0.41-0.18-0.41-0.41v-9.2c0-0.23,0.18-0.41,0.41-0.41h10.63
			c0.23,0,0.41,0.18,0.41,0.41v9.2C657.52,651.23,657.33,651.41,657.1,651.41z"/>
	</g>
	<rect x="204.2" y="696.53" class="st0" width="501.3" height="11.46"/>
	<line class="st0" x1="312.34" y1="697.24" x2="312.34" y2="707.27"/>
	<line class="st0" x1="597.36" y1="697.24" x2="597.36" y2="708.7"/>
	<path class="st0" d="M319.97,752.39h-51.08c-3.69,0-6.68-2.99-6.68-6.68v-38.43h64.45v38.43
		C326.66,749.39,323.67,752.39,319.97,752.39z"/>
	<path class="st0" d="M623.62,752.39h-51.08c-3.69,0-6.68-2.99-6.68-6.68v-38.43h64.45v38.43
		C630.3,749.39,627.31,752.39,623.62,752.39z"/>
	<polygon class="st0" points="293,322.05 282.47,303.82 268.24,312.03 268.24,294.77 247.18,294.77 247.18,312.64 231.9,303.82 
		221.37,322.05 236.12,330.57 221.37,339.09 231.9,357.33 247.18,348.51 247.18,365.32 268.24,365.32 268.24,349.12 282.47,357.33 
		293,339.09 278.24,330.57 	"/>
</g>
<g>
	<g>
		<line class="st1" x1="18" y1="752.39" x2="20.5" y2="752.39"/>
		<line class="st2" x1="25.5" y1="752.39" x2="1223.28" y2="752.39"/>
		<line class="st1" x1="1225.78" y1="752.39" x2="1228.28" y2="752.39"/>
	</g>
</g>
<line class="st3" x1="18.72" y1="753.1" x2="18.72" y2="25.5"/>
<line class="st3" x1="1229" y1="753.1" x2="1229" y2="25.5"/>
<line class="st3" x1="18.72" y1="25.5" x2="1229" y2="25.5"/>
<g>
	<g>
		<line class="st0" x1="20.17" y1="177.32" x2="1226.83" y2="177.32"/>
		<g>
			<polygon class="st4" points="26.8,185.5 28.16,184.04 20.94,177.32 28.16,170.61 26.8,169.14 18,177.32 			"/>
		</g>
		<g>
			<polygon class="st4" points="1220.2,185.5 1218.84,184.04 1226.06,177.32 1218.84,170.61 1220.2,169.14 1229,177.32 			"/>
		</g>
	</g>
</g>
<text transform="matrix(1 0 0 1 446.0566 159.543)"><tspan x="0" y="0" class="st4 st5 st6">6’ | 1.8 m </tspan><tspan x="104.71" y="0" class="st4 st7 st6">clear width (Minimum)</tspan></text>
</svg>
